<?xml version="1.0" standalone="no"?>
<!DOCTYPE svg PUBLIC "-//W3C//DTD SVG 20010904//EN"
 "http://www.w3.org/TR/2001/REC-SVG-20010904/DTD/svg10.dtd">
<svg version="1.0" xmlns="http://www.w3.org/2000/svg"
 width="2000.000000pt" height="1500.000000pt" viewBox="0 0 2000.000000 1500.000000"
 preserveAspectRatio="xMidYMid meet">

<g transform="translate(0.000000,1500.000000) scale(0.100000,-0.100000)"
fill="#000000" stroke="none">
<path d="M2930 9000 l0 -190 765 0 765 0 0 -190 0 -190 -765 0 -765 0 0 -190
0 -190 -190 0 -190 0 0 -195 0 -195 190 0 190 0 0 -190 0 -190 1145 0 1145 0
0 765 0 765 -190 0 -190 0 0 190 0 190 -955 0 -955 0 0 -190z m1530 -1145 l0
-195 -572 2 -573 3 -3 180 c-1 98 0 185 2 192 4 10 121 13 576 13 l570 0 0
-195z"/>
<path d="M5990 8235 l0 -955 380 0 380 0 0 575 0 575 190 0 190 0 0 190 0 190
575 0 575 0 0 190 0 190 -575 0 -575 0 0 -190 0 -190 -190 0 -190 0 0 190 0
190 -380 0 -380 0 0 -955z"/>
<path d="M9050 8235 l0 -955 380 0 380 0 0 575 0 575 190 0 190 0 0 190 0 190
575 0 575 0 0 190 0 190 -575 0 -575 0 0 -190 0 -190 -190 0 -190 0 0 190 0
190 -380 0 -380 0 0 -955z"/>
<path d="M12100 9000 l0 -190 -190 0 -190 0 0 -575 0 -575 190 0 190 0 0 -190
0 -190 955 0 955 0 0 190 0 190 190 0 190 0 0 575 0 575 -190 0 -190 0 0 190
0 190 -955 0 -955 0 0 -190z m1530 -765 l0 -575 -572 2 -573 3 -3 573 -2 572
575 0 575 0 0 -575z"/>
<path d="M14780 8425 l0 -765 190 0 190 0 0 -190 0 -190 380 0 380 0 0 190 0
190 190 0 190 0 2 -187 3 -188 383 -3 382 -2 0 190 0 190 190 0 190 0 0 765 0
765 -380 0 -380 0 -2 -762 -3 -763 -192 -3 -193 -2 0 765 0 765 -190 0 -190 0
0 -765 0 -765 -190 0 -190 0 0 765 0 765 -380 0 -380 0 0 -765z"/>
<path d="M2585 7065 c-40 -14 -75 -47 -75 -69 0 -22 33 -58 66 -72 51 -21
14798 -21 14849 0 18 8 41 26 51 41 22 33 8 67 -38 92 -32 17 -331 18 -7423
20 -6362 2 -7396 0 -7430 -12z"/>
<path d="M13040 6395 c0 -341 2 -354 65 -381 58 -24 115 -16 115 16 0 15 -6
17 -38 13 -31 -4 -44 0 -68 20 l-29 25 -3 306 c-3 295 -4 306 -23 306 -18 0
-19 -10 -19 -305z"/>
<path d="M12042 6341 c3 -245 4 -261 24 -288 11 -15 39 -34 60 -42 64 -23 153
4 139 41 -6 14 -9 14 -37 1 -38 -20 -97 -11 -120 18 -16 18 -18 45 -18 205 l0
184 75 0 c68 0 75 2 75 20 0 18 -7 20 -75 20 l-75 0 0 50 c0 47 -2 50 -25 50
l-26 0 3 -259z"/>
<path d="M6274 6487 c-2 -7 -3 -118 -2 -247 3 -232 3 -235 25 -238 21 -3 21
-1 25 165 3 148 5 172 24 203 56 96 195 118 267 42 36 -37 47 -103 47 -273 0
-130 1 -139 19 -139 18 0 19 10 23 163 3 141 6 167 24 202 52 100 193 125 267
47 36 -38 46 -95 47 -264 0 -141 1 -148 20 -148 19 0 20 7 20 180 0 160 -2
185 -20 219 -37 73 -106 107 -195 98 -73 -7 -131 -41 -165 -94 -8 -12 -13 -14
-16 -6 -48 114 -231 138 -326 43 l-38 -38 0 49 c0 43 -3 49 -20 49 -11 0 -23
-6 -26 -13z"/>
<path d="M7387 6486 c-100 -37 -157 -122 -157 -236 0 -157 115 -262 268 -247
235 24 301 351 93 466 -53 29 -150 38 -204 17z m183 -56 c91 -47 126 -192 68
-290 -86 -148 -306 -119 -354 47 -53 184 117 329 286 243z"/>
<path d="M7760 6489 c0 -13 198 -457 213 -477 6 -7 19 -12 30 -10 14 2 44 58
123 233 127 280 122 268 93 263 -20 -3 -38 -35 -119 -215 -52 -116 -98 -214
-100 -216 -3 -3 -48 92 -101 211 -78 175 -101 218 -118 220 -11 2 -21 -2 -21
-9z"/>
<path d="M8439 6486 c-91 -32 -147 -106 -156 -206 -14 -147 78 -262 222 -277
95 -10 219 46 202 91 -5 13 -14 11 -52 -13 -81 -51 -180 -49 -253 6 -34 26
-71 88 -59 100 4 3 95 24 204 45 108 21 198 40 201 43 10 10 -22 98 -50 136
-54 75 -168 108 -259 75z m149 -41 c48 -21 75 -47 98 -96 13 -29 15 -43 6 -48
-6 -3 -88 -22 -182 -40 -132 -26 -174 -31 -180 -22 -11 18 7 98 30 136 46 74
145 104 228 70z"/>
<path d="M9130 6348 c0 -168 8 -212 47 -258 72 -87 219 -91 305 -9 l41 38 -5
-77 c-3 -45 -12 -91 -22 -110 -44 -84 -203 -95 -306 -22 -29 20 -29 20 -39 1
-9 -16 -6 -23 20 -42 91 -64 261 -65 332 -1 11 9 29 35 41 57 20 38 21 53 21
305 l0 265 -22 3 c-23 3 -23 3 -23 -143 0 -183 -17 -232 -94 -272 -40 -21
-139 -19 -176 4 -57 34 -70 80 -70 256 l0 157 -25 0 -25 0 0 -152z"/>
<path d="M9890 6491 c-113 -37 -173 -120 -173 -241 0 -194 202 -313 368 -215
81 47 117 113 117 215 1 102 -43 180 -125 222 -45 22 -145 33 -187 19z m174
-65 c110 -64 126 -229 32 -322 -168 -169 -423 46 -304 258 52 92 175 121 272
64z"/>
<path d="M10350 6323 c0 -190 9 -233 58 -276 75 -67 219 -60 294 15 l38 38 0
-50 c0 -43 3 -50 20 -50 19 0 20 7 20 250 0 238 -1 250 -19 250 -17 0 -19 -12
-23 -162 -4 -142 -7 -168 -26 -204 -49 -95 -188 -122 -267 -52 -44 38 -55 91
-55 273 0 138 -1 145 -20 145 -19 0 -20 -7 -20 -177z"/>
<path d="M10985 6488 c-3 -7 -4 -119 -3 -248 l3 -235 23 -3 22 -3 0 158 c0
145 2 163 23 203 28 55 64 82 119 89 35 5 44 10 46 29 3 18 -1 22 -25 22 -41
-1 -105 -33 -135 -69 l-27 -31 -3 47 c-2 36 -7 49 -21 51 -9 2 -19 -3 -22 -10z"/>
<path d="M11635 6485 c-76 -27 -113 -104 -82 -171 20 -41 53 -59 162 -84 113
-26 142 -42 150 -81 21 -96 -131 -139 -269 -76 -46 21 -55 23 -60 10 -10 -26
-7 -30 46 -53 108 -46 234 -36 295 25 28 28 33 40 33 79 0 75 -31 100 -163
132 -124 30 -157 51 -157 97 1 41 18 63 63 82 48 20 100 18 167 -5 56 -19 78
-15 67 14 -8 20 -99 46 -161 46 -28 -1 -69 -7 -91 -15z"/>
<path d="M12400 6348 c0 -168 8 -212 47 -258 72 -87 219 -91 305 -9 l41 38 -5
-78 c-3 -57 -10 -88 -26 -113 -51 -82 -200 -90 -302 -18 -29 20 -29 20 -39 1
-9 -16 -6 -23 20 -42 74 -53 212 -65 289 -26 96 48 111 108 108 422 -3 230 -3
230 -25 233 -23 3 -23 3 -23 -143 0 -183 -17 -232 -94 -272 -43 -23 -138 -19
-179 6 -55 34 -61 58 -67 241 -5 162 -5 165 -27 168 -23 3 -23 3 -23 -150z"/>
<path d="M13411 6487 c-50 -19 -106 -71 -130 -120 -30 -63 -29 -165 3 -234 55
-118 219 -168 343 -104 54 27 69 46 53 66 -12 14 -15 13 -35 -5 -51 -48 -168
-60 -235 -25 -42 22 -111 107 -97 121 3 3 391 84 404 84 2 0 3 12 3 28 -1 61
-59 146 -124 179 -40 21 -142 26 -185 10z m184 -57 c56 -35 101 -124 67 -134
-29 -9 -331 -66 -347 -66 -35 0 -9 115 38 166 60 65 167 80 242 34z"/>
</g>
</svg>
